<svg id="Layer_1" data-name="Layer 1" xmlns="http://www.w3.org/2000/svg" viewBox="0 0 512 512"><defs><style>.cls-1{fill:none;}.cls-2{fill:#53fb5e;}.cls-3{fill:#ac53fb;}</style></defs><rect class="cls-1" width="512" height="512"/><path class="cls-2" d="M232.28,390.1a19.94,19.94,0,0,1-14.14-5.86L182.7,348.8A20,20,0,1,1,211,320.52l21.29,21.29L359.56,214.53A80,80,0,1,0,246.43,101.4a20,20,0,0,1-14.15,5.86h0a20,20,0,0,1-14.14-5.86A80,80,0,0,0,105,214.53a20,20,0,1,1-28.29,28.29A120,120,0,0,1,232.3,61,120,120,0,0,1,387.84,242.82L246.43,384.24A19.94,19.94,0,0,1,232.28,390.1Z"/><path class="cls-3" d="M420.37,474a19.81,19.81,0,0,1-6-.93L281.31,431l-133,42.09a20,20,0,0,1-26-19.07V151.35a20,20,0,0,1,40,0V426.73l113-35.77a20,20,0,0,1,12.07,0l113,35.77V279.32a20,20,0,0,1,40,0V454a20,20,0,0,1-20,20Z"/></svg>