<svg id="Layer_1" data-name="Layer 1" xmlns="http://www.w3.org/2000/svg" viewBox="0 0 512 512"><defs><style>.cls-1{fill:none;}</style></defs><path d="M456.25,249.66a20,20,0,0,1-9,16.72L389.13,304.5a20,20,0,0,1-21.94-33.44l32.61-21.4L246.25,148.89V350.43l13.32-8.74a20,20,0,1,1,21.94,33.44l-44.29,29.06a20,20,0,0,1-31-16.72V271.62c-62.46,9.44-110.5,63.49-110.5,128.54a20,20,0,0,1-40,0c0-87.15,65.91-159.18,150.5-168.89V111.85a20,20,0,0,1,31-16.72l210,137.81A20,20,0,0,1,456.25,249.66Z"/><rect class="cls-1" width="512" height="512"/></svg>